HIERARCHY
ROOT hip
{
	OFFSET 0.000000 0.000000 0.000000 
	CHANNELS 6 Xposition Yposition Zposition Xrotation Zrotation Yrotation
	JOINT abdomen
	{
		OFFSET 0.000000 3.402643 0.000000 
		CHANNELS 3 Xrotation Zrotation Yrotation
		JOINT chest
		{
			OFFSET 0.000000 8.438565 -0.680529 
			CHANNELS 3 Xrotation Zrotation Yrotation
			JOINT neck
			{
				OFFSET 0.000000 10.207942 -0.272212 
				CHANNELS 3 Xrotation Zrotation Yrotation
				JOINT head
				{
					OFFSET 0.000000 3.130431 0.000000 
					CHANNELS 3 Xrotation Zrotation Yrotation
					End Site
					{
						OFFSET 0.000000 3.130435 0.000000 
					}
				}
			}
			JOINT lCollar
			{
				OFFSET 3.470700 6.669187 -0.816635 
				CHANNELS 3 Yrotation Zrotation Xrotation
				JOINT lShldr
				{
					OFFSET 3.198488 0.000000 0.000000 
					CHANNELS 3 Zrotation Yrotation Xrotation
					JOINT lForeArm
					{
						OFFSET 10.139888 0.000000 0.000000 
						CHANNELS 3 Yrotation Zrotation Xrotation
						JOINT lHand
						{
							OFFSET 8.370511 0.000000 0.000000 
							CHANNELS 3 Zrotation Yrotation Xrotation
							End Site
							{
								OFFSET 4.083176 0.000000 0.000000 
							}
						}
					}
				}
			}
			JOINT rCollar
			{
				OFFSET -3.470700 6.669187 -0.816635 
				CHANNELS 3 Yrotation Zrotation Xrotation
				JOINT rShldr
				{
					OFFSET -3.198488 0.000000 0.000000 
					CHANNELS 3 Zrotation Yrotation Xrotation
					JOINT rForeArm
					{
						OFFSET -10.139888 0.000000 0.000000 
						CHANNELS 3 Yrotation Zrotation Xrotation
						JOINT rHand
						{
							OFFSET -8.370511 0.000000 0.000000 
							CHANNELS 3 Zrotation Yrotation Xrotation
							End Site
							{
								OFFSET -4.083176 0.000000 0.000000 
							}
						}
					}
				}
			}
		}
	}
	JOINT lThigh
	{
		OFFSET 5.308129 -1.633274 1.361059 
		CHANNELS 3 Xrotation Zrotation Yrotation
		JOINT lShin
		{
			OFFSET -2.041588 -20.007561 0.000000 
			CHANNELS 3 Xrotation Zrotation Yrotation
			JOINT lFoot
			{
				OFFSET 0.000000 -19.190928 -1.224953 
				CHANNELS 3 Xrotation Yrotation Zrotation
				End Site
				{
					OFFSET 0.000000 -2.449906 4.627600 
				}
			}
		}
	}
	JOINT rThigh
	{
		OFFSET -5.308129 -1.633274 1.361059 
		CHANNELS 3 Xrotation Zrotation Yrotation
		JOINT rShin
		{
			OFFSET 2.041588 -20.007561 0.000000 
			CHANNELS 3 Xrotation Zrotation Yrotation
			JOINT rFoot
			{
				OFFSET 0.000000 -19.190928 -1.224953 
				CHANNELS 3 Xrotation Yrotation Zrotation
				End Site
				{
					OFFSET 0.000000 -2.449906 4.627600 
				}
			}
		}
	}
}
MOTION
Frames: 13
Frame Time: 0.033333
-0.675299 42.692448 1.772085 -3.202559 -4.114536 26.841625 0.000000 0.000000 0.000000 1.767183 9.189980 -31.484419 -22.712044 0.887479 -2.968999 27.861496 -1.034737 -1.631299 -3.521967 9.154817 6.304141 -109.401169 -54.577843 36.964500 -23.742285 -0.949197 -25.353918 1.120069 -16.439329 -6.826904 3.089181 -14.089146 8.026228 54.123047 35.234180 -7.296790 134.837128 12.871808 42.120754 -26.894234 -4.796896 -10.129943 -31.200157 16.298326 -2.612785 42.471180 10.811938 -60.882133 -12.884363 -1.370883 8.787459 -1.720357 -23.376293 -26.367741 38.400253 -1.624925 14.346752 -14.231506 1.183956 -7.157207 
-0.300806 42.928085 1.671442 -4.239992 -1.068557 21.986412 0.000000 0.000000 0.000000 3.619258 2.910983 -4.488033 -18.065088 0.900464 -13.927403 23.928747 -0.862510 -11.085358 -3.521967 9.154817 6.304141 -99.949211 -33.650948 49.199066 -64.426224 -5.503814 -49.981873 -17.931974 -24.781231 -0.339632 3.089181 -14.089146 8.026228 71.141960 31.622730 -18.108608 100.847557 9.953832 26.786350 -24.615332 -0.881681 -9.439852 -26.119944 15.105559 -0.867279 42.009655 9.939045 -56.509365 -13.477082 -1.454857 8.765604 -1.984452 -25.523439 -24.384258 37.271919 -4.305206 18.716444 -13.374754 1.177713 -7.421529 
-0.026885 43.150398 1.617850 -6.291488 1.259858 10.002497 0.000000 0.000000 0.000000 9.191948 -5.929417 21.673758 -28.819874 4.012280 -24.399513 28.192665 -5.986918 -17.333912 -3.521967 9.154817 6.304141 -88.027702 -18.202578 49.811241 -89.797440 -5.877286 -63.758121 -37.523129 -28.924534 8.186318 3.089181 -14.089146 8.026228 76.539169 43.802341 -52.154716 75.251961 32.950661 -37.977112 0.396984 22.294762 -6.940475 -18.495363 17.010914 4.877661 41.953587 7.089781 -49.965496 -14.789169 -1.626809 9.212539 -5.918704 -26.331949 -19.166317 36.148270 -8.460259 23.535917 -13.396064 1.281256 -7.969240 
-0.084735 43.189346 1.603482 -4.370190 2.861116 6.717644 0.000000 0.000000 0.000000 9.905531 -12.372786 29.528950 -44.577160 5.855983 -31.313835 32.983326 -11.304487 -19.495571 -3.521967 9.154817 6.304141 -84.323532 2.974068 36.595161 -101.664322 -7.785820 -67.478905 -38.500538 -35.088421 10.873338 3.089181 -14.089146 8.026228 87.956749 46.814159 -62.036251 81.851234 37.347897 -63.871334 -0.658472 19.206442 -7.022318 -17.772423 17.039787 7.520924 40.630116 4.845116 -48.825878 -16.075218 -1.777307 9.571591 -10.068383 -27.948561 -17.381411 36.647167 -9.447050 25.972721 -13.417885 1.331262 -8.216925 
-0.470154 42.993034 1.487282 -1.776635 0.919792 16.037422 0.000000 0.000000 0.000000 8.999293 -8.698982 24.052923 -44.276768 4.685680 -31.454210 28.397646 -6.419765 -20.407133 -3.521967 9.154817 6.304141 -89.980652 16.292786 18.023062 -104.215775 -9.956087 -65.033829 -25.643232 -45.324192 8.561621 3.089181 -14.089146 8.026228 89.432091 42.817326 -47.769436 93.599113 35.174953 -50.555843 5.407163 15.112932 -5.774456 -24.788944 16.577648 3.747714 40.918610 6.533723 -53.395954 -14.388678 -1.549939 9.005070 -8.252782 -28.234343 -21.910454 38.718582 -6.060102 21.896940 -13.949766 1.336144 -7.993111 
-0.795905 42.831184 1.526872 -3.488532 -0.261125 22.773676 0.000000 0.000000 0.000000 9.388767 -4.094393 21.335995 -38.799088 4.890170 -32.476379 26.166887 -7.376609 -21.831100 -3.521967 9.154817 6.304141 -91.682076 15.974638 12.619081 -102.295784 -9.051291 -61.355038 -23.992357 -41.152462 6.239955 3.089181 -14.089146 8.026228 85.336876 39.737103 -45.192680 91.110825 33.727741 -49.273762 6.846309 16.270226 -5.328527 -26.783819 16.501823 1.486919 41.347206 8.119360 -57.151760 -12.791361 -1.370714 8.633421 -2.793404 -27.061125 -26.045902 39.089809 -3.581368 18.473352 -15.899791 1.469669 -8.049997 
-0.974656 42.722492 1.538475 -4.347052 -0.027107 22.294924 0.000000 0.000000 0.000000 9.937593 -5.322658 20.590479 -35.836536 6.033508 -32.191097 25.777021 -7.762820 -21.229794 -3.521967 9.154817 6.304141 -88.992241 15.113474 14.974033 -106.570763 -8.240526 -60.708408 -30.774687 -30.618298 6.060594 3.089181 -14.089146 8.026228 89.852875 40.316982 -47.585133 86.288078 33.621456 -49.106670 6.367059 16.418268 -5.418780 -26.082357 17.293831 2.158253 41.647919 7.850283 -57.803654 -12.329067 -1.307918 8.450249 -2.259185 -26.603481 -25.764030 39.264503 -3.892006 17.877542 -17.311628 1.602078 -8.284897 
-1.056806 42.668823 1.398854 -3.744170 0.212003 19.287260 0.000000 0.000000 0.000000 10.372145 -7.151953 20.635460 -36.759441 4.471388 -29.551817 27.830248 -6.064659 -20.107773 -3.521967 9.154817 6.304141 -86.361862 13.352037 14.511427 -112.792213 -8.432429 -61.186459 -33.847061 -24.215652 4.992648 3.089181 -14.089146 8.026228 92.365784 40.688309 -48.349007 84.227516 33.225197 -46.521275 6.203435 16.830706 -5.402799 -25.646660 18.216736 3.533636 41.787125 7.000024 -56.517570 -12.350267 -1.303790 8.528909 -5.088585 -27.068762 -24.144861 40.015362 -4.828745 19.283848 -17.336636 1.650003 -8.501904 
-1.130497 42.671284 1.273677 -3.804839 0.223005 17.920084 0.000000 0.000000 0.000000 10.692261 -6.671508 20.309410 -35.681839 2.668273 -26.779018 27.164135 -4.048254 -19.249399 -3.521967 9.154817 6.304141 -84.509842 9.810972 10.062655 -118.315239 -9.089120 -58.148727 -28.298744 -23.341795 2.760890 3.089181 -14.089146 8.026228 90.740967 40.483604 -47.372757 79.195320 30.636719 -39.343739 3.939114 14.037011 -6.255200 -25.161657 18.746401 4.110252 41.592186 6.776950 -56.190739 -12.292486 -1.317883 8.531675 -5.928660 -27.145666 -23.743155 40.049549 -4.943431 20.201824 -17.348949 1.673357 -8.610863 
-1.267357 42.662094 1.223930 -4.611707 -0.378944 18.838305 0.000000 0.000000 0.000000 10.339319 -4.280573 18.823822 -32.371014 1.937289 -25.073654 24.998167 -3.173491 -18.682154 -3.521967 9.154817 6.304141 -81.639297 5.047929 3.811126 -124.658577 -8.313834 -50.136005 -15.377785 -20.420328 -2.008955 3.089181 -14.089146 8.026228 86.674362 43.026497 -46.976135 65.213768 24.419491 -26.991455 0.974519 11.315900 -7.101147 -25.237829 19.301371 3.728133 41.483860 7.242700 -57.149700 -12.039679 -1.304747 8.479454 -4.639839 -26.353827 -24.301470 39.789158 -4.388459 20.265978 -17.817493 1.710331 -8.663469 
-1.410256 42.617558 1.215690 -5.391970 -0.420668 20.537680 0.000000 0.000000 0.000000 11.613540 -3.219371 17.166174 -31.461603 1.925373 -24.702158 24.144226 -3.464828 -18.463068 -3.521967 9.154817 6.304141 -76.792274 -2.048445 -1.915205 -134.110931 -5.544769 -32.375156 4.277531 -15.272453 -7.738096 3.089181 -14.089146 8.026228 79.571953 50.444736 -48.610611 46.903820 14.350966 -5.876564 -3.285321 6.552118 -8.142348 -25.429775 19.170008 3.152208 41.501694 7.694333 -58.279892 -11.650504 -1.264385 8.373283 -2.949950 -26.093029 -25.442091 39.898300 -3.803487 20.075743 -18.633682 1.807249 -8.820065 
-1.496408 42.577988 1.112220 -5.287964 0.163873 21.211042 0.000000 0.000000 0.000000 12.431364 -3.852187 18.128294 -29.254728 3.114614 -25.743565 23.080233 -3.986396 -18.748613 -3.521967 9.154817 6.304141 -64.931473 -15.509778 -8.394547 -144.512726 -3.676208 -10.107010 19.888538 -11.720408 -11.217772 3.089181 -14.089146 8.026228 65.287186 60.691387 -53.916126 21.684471 -4.562934 20.517351 -6.033895 0.517293 -8.664474 -25.559385 18.412535 2.884520 41.257694 7.695479 -58.522972 -11.290650 -1.192149 8.131631 -2.863301 -26.831017 -26.069885 40.527161 -3.693623 19.813309 -18.829395 1.867260 -8.866055 
-1.474971 42.536095 0.998742 -5.359773 0.596742 19.932854 0.000000 0.000000 0.000000 14.899682 -4.058389 24.626200 -25.542944 4.337734 -27.163822 21.214722 -4.187214 -19.586094 -3.521967 9.154817 6.304141 -38.057140 -32.378674 -25.400047 -151.216736 -3.733066 0.352124 27.973202 -15.243947 -13.431400 3.089181 -14.089146 8.026228 45.233932 57.176807 -61.379753 10.058405 -7.444916 54.529560 -4.470115 -4.343423 -8.586680 -25.012415 18.304878 3.218274 41.503326 7.524369 -57.503834 -11.525326 -1.217769 8.187989 -3.643168 -27.568413 -25.879948 40.918896 -3.992948 21.016689 -18.749973 1.856509 -8.993825 
